<?xml version="1.0" standalone="no"?>
<!DOCTYPE svg PUBLIC "-//W3C//DTD SVG 20010904//EN"
 "http://www.w3.org/TR/2001/REC-SVG-20010904/DTD/svg10.dtd">
<svg version="1.0" xmlns="http://www.w3.org/2000/svg"
 width="288.000000pt" height="288.000000pt" viewBox="0 0 288.000000 288.000000"
 preserveAspectRatio="xMidYMid meet">
<metadata>
Created by potrace 1.14, written by Peter Selinger 2001-2017
</metadata>
<g transform="translate(0.000000,288.000000) scale(0.100000,-0.100000)"
fill="#000000" stroke="none">
<path d="M314 2692 c-62 -9 -90 -26 -113 -70 -18 -33 -18 -2331 0 -2364 15
-28 28 -42 57 -57 33 -18 2326 -18 2365 0 15 7 36 27 47 44 20 32 20 55 20
1194 0 861 -3 1168 -12 1184 -15 29 -47 56 -72 63 -22 5 -2257 11 -2292 6z"/>
</g>
</svg>
